<?xml version="1.0" encoding="UTF-8" standalone="no"?>
<!-- Created with Inkscape (http://www.inkscape.org/) -->

<svg
   xmlns:dc="http://purl.org/dc/elements/1.1/"
   xmlns:cc="http://creativecommons.org/ns#"
   xmlns:rdf="http://www.w3.org/1999/02/22-rdf-syntax-ns#"
   xmlns:svg="http://www.w3.org/2000/svg"
   xmlns="http://www.w3.org/2000/svg"
   xmlns:xlink="http://www.w3.org/1999/xlink"
   xmlns:sodipodi="http://sodipodi.sourceforge.net/DTD/sodipodi-0.dtd"
   xmlns:inkscape="http://www.inkscape.org/namespaces/inkscape"
   id="svg2"
   sodipodi:modified="TRUE"
   viewBox="0 0 64 64"
   inkscape:export-ydpi="396.94656"
   inkscape:export-xdpi="396.94656"
   version="1.0"
   inkscape:output_extension="org.inkscape.output.svg.inkscape"
   sodipodi:docname="csv-data-analyze.svg"
   inkscape:export-filename="/home/blaubaer/Python-Projekte/csv-data-analyze/Howto/pics/csv-data-analyze.png"
   inkscape:version="0.92.3 (2405546, 2018-03-11)"
   sodipodi:version="0.32">
  <defs
     id="defs4">
    <linearGradient
       id="linearGradient3588">
      <stop
         id="stop3590"
         style="stop-color:#729fcf"
         offset="0" />
      <stop
         id="stop3592"
         style="stop-color:#204a87"
         offset="1" />
    </linearGradient>
    <linearGradient
       id="linearGradient3258">
      <stop
         id="stop3262"
         style="stop-color:#4e9a06"
         offset="0" />
      <stop
         id="stop3264"
         style="stop-color:#8ae234"
         offset="1" />
    </linearGradient>
    <linearGradient
       id="linearGradient3248">
      <stop
         id="stop3284"
         style="stop-color:#c91414"
         offset="0" />
      <stop
         id="stop3252"
         style="stop-color:#ef2929"
         offset="1" />
    </linearGradient>
    <linearGradient
       id="linearGradient2434">
      <stop
         id="stop2436"
         style="stop-color:#f57900"
         offset="0" />
      <stop
         id="stop2438"
         style="stop-color:#fcaf3e"
         offset="1" />
    </linearGradient>
    <linearGradient
       id="linearGradient2480"
       y2="34"
       xlink:href="#linearGradient3248"
       gradientUnits="userSpaceOnUse"
       x2="8"
       gradientTransform="matrix(1.0076923,0,0,0.54487742,39.664531,18.935883)"
       y1="44.5"
       x1="17"
       inkscape:collect="always" />
    <linearGradient
       id="linearGradient2483"
       y2="37"
       xlink:href="#linearGradient3248"
       gradientUnits="userSpaceOnUse"
       x2="11"
       gradientTransform="matrix(-1.0076923,0,0,-0.54487742,64.85684,68.24759)"
       y1="34"
       x1="8"
       inkscape:collect="always" />
    <linearGradient
       id="linearGradient2486"
       y2="44.5"
       xlink:href="#linearGradient2434"
       gradientUnits="userSpaceOnUse"
       x2="17"
       gradientTransform="matrix(-1.0076923,0,0,-1.011914,51.756842,84.126322)"
       y1="34"
       x1="6"
       inkscape:collect="always" />
    <linearGradient
       id="linearGradient2489"
       y2="34"
       xlink:href="#linearGradient2434"
       gradientUnits="userSpaceOnUse"
       x2="8"
       gradientTransform="matrix(1.0076923,0,0,1.011914,26.564533,-10.019848)"
       y1="44.5"
       x1="19"
       inkscape:collect="always" />
    <linearGradient
       id="linearGradient2492"
       y2="44.5"
       xlink:href="#linearGradient3258"
       gradientUnits="userSpaceOnUse"
       x2="17"
       gradientTransform="matrix(-1.0076923,0,0,-1.401118,38.656844,97.362693)"
       y1="34"
       x1="8"
       inkscape:collect="always" />
    <linearGradient
       id="linearGradient2495"
       y2="34"
       xlink:href="#linearGradient3258"
       gradientUnits="userSpaceOnUse"
       x2="8"
       gradientTransform="matrix(1.0076923,0,0,1.2454201,13.464535,-28.585092)"
       y1="44.5"
       x1="17"
       inkscape:collect="always" />
    <linearGradient
       id="linearGradient2498"
       y2="34"
       xlink:href="#linearGradient3588"
       gradientUnits="userSpaceOnUse"
       x2="8"
       gradientTransform="matrix(-1.0076923,0,0,-0.81731205,25.556837,77.510184)"
       y1="44"
       x1="17"
       inkscape:collect="always" />
    <linearGradient
       id="linearGradient2501"
       y2="44"
       xlink:href="#linearGradient3588"
       gradientUnits="userSpaceOnUse"
       x2="17"
       gradientTransform="matrix(1.0076923,0,0,0.81731205,0.36453748,3.1347886)"
       y1="34"
       x1="8"
       inkscape:collect="always" />
    <linearGradient
       id="linearGradient2504"
       y2="11"
       xlink:href="#linearGradient2434"
       gradientUnits="userSpaceOnUse"
       x2="51"
       gradientTransform="matrix(1.0076923,0,0,0.81731205,-16.766235,15.39447)"
       y1="42"
       x1="60"
       inkscape:collect="always" />
    <linearGradient
       id="linearGradient2508"
       y2="57"
       gradientUnits="userSpaceOnUse"
       x2="17"
       gradientTransform="matrix(1.0076923,0,0,0.81731205,0.36453748,3.1347886)"
       y1="34"
       x1="8"
       inkscape:collect="always">
      <stop
         id="stop3272"
         style="stop-color:#729fcf"
         offset="0" />
      <stop
         id="stop3274"
         style="stop-color:#204a87"
         offset="1" />
    </linearGradient>
    <linearGradient
       id="linearGradient2511"
       y2="48.269"
       xlink:href="#linearGradient3248"
       gradientUnits="userSpaceOnUse"
       x2="50.657"
       gradientTransform="matrix(1.0076923,0,0,0.81731205,0.36453748,3.1347886)"
       y1="57"
       x1="56"
       inkscape:collect="always" />
    <linearGradient
       id="linearGradient2516"
       y2="13"
       xlink:href="#linearGradient3258"
       gradientUnits="userSpaceOnUse"
       x2="21"
       gradientTransform="matrix(1.0076923,0,0,0.81731205,0.36453748,3.1347886)"
       y1="57"
       x1="30"
       inkscape:collect="always" />
    <filter
       inkscape:collect="always"
       color-interpolation-filters="sRGB"
       id="filter4402">
      <feGaussianBlur
         inkscape:collect="always"
         stdDeviation="1.2625"
         id="feGaussianBlur4404" />
    </filter>
    <linearGradient
       inkscape:collect="always"
       x1="298.48"
       y1="238.13"
       gradientTransform="matrix(0.53078,0,0,0.52644,-212.35,-339.55)"
       x2="299.9"
       gradientUnits="userSpaceOnUse"
       xlink:href="#linearGradient3928-8-2"
       y2="150.17"
       id="linearGradient3452" />
    <linearGradient
       id="linearGradient3928-8-2">
      <stop
         offset="0"
         style="stop-color:#7c7c7c"
         id="stop3930-2-9" />
      <stop
         offset="1"
         style="stop-color:#e6e3e3"
         id="stop3932-0-4" />
    </linearGradient>
    <filter
       inkscape:collect="always"
       color-interpolation-filters="sRGB"
       height="1.215"
       x="-.041613"
       y="-.10750"
       width="1.0832"
       id="filter4396">
      <feGaussianBlur
         inkscape:collect="always"
         stdDeviation="0.53749999"
         id="feGaussianBlur4398" />
    </filter>
    <linearGradient
       inkscape:collect="always"
       x1="326.01"
       y1="161.52"
       gradientTransform="matrix(0.5298,0,0,0.5298,-212.01,-340.03)"
       x2="310.68"
       gradientUnits="userSpaceOnUse"
       xlink:href="#linearGradient3928-8-2"
       y2="177.41"
       id="linearGradient3454" />
  </defs>
  <sodipodi:namedview
     id="base"
     inkscape:zoom="8.15625"
     height="30px"
     borderopacity="1.0"
     inkscape:current-layer="layer1"
     inkscape:cx="3.3716475"
     inkscape:cy="32"
     inkscape:grid-points="true"
     inkscape:snap-bbox="true"
     showgrid="false"
     width="30px"
     inkscape:snap-nodes="true"
     inkscape:snap-global="true"
     showguides="true"
     bordercolor="#666666"
     inkscape:window-x="0"
     inkscape:window-y="30"
     inkscape:window-width="1366"
     inkscape:pageopacity="0.0"
     inkscape:pageshadow="2"
     guidetolerance="10000"
     pagecolor="#ffffff"
     gridtolerance="10000"
     inkscape:bbox-paths="true"
     inkscape:document-units="px"
     inkscape:bbox-nodes="true"
     inkscape:window-height="705"
     inkscape:window-maximized="1">
    <inkscape:grid
       id="grid2395"
       visible="true"
       type="xygrid"
       enabled="true" />
  </sodipodi:namedview>
  <g
     id="layer1"
     inkscape:label="Calque 1"
     inkscape:groupmode="layer">
    <rect
       id="rect3465"
       style="fill:#427bc3"
       ry="0"
       height="0"
       width="6"
       y="12.5"
       x="16" />
    <path
       id="path2430"
       sodipodi:nodetypes="csssccs"
       style="fill:#204a87;stroke-width:0.90752351"
       d="m 6.4106841,30.814696 c 0,0 0,-1.52592 1.8713916,-1.52592 H 17.6394 c 1.87129,0 1.87129,1.52592 1.87129,1.52592 V 49.721577 H 6.4106841 Z"
       inkscape:connector-curvature="0" />
    <path
       id="rect3240"
       sodipodi:nodetypes="csssccs"
       style="fill:#cc0000;stroke-width:0.90752351"
       d="m 45.710686,37.516657 c 0,0 0,-1.525923 1.871282,-1.525923 h 9.357434 c 1.871282,0 1.871282,1.525923 1.871282,1.525923 v 12.20492 H 45.710686 Z"
       inkscape:connector-curvature="0" />
    <path
       id="path2428"
       sodipodi:nodetypes="csssccs"
       style="fill:#4e9a06;stroke-width:0.90752351"
       d="m 19.51069,13.650899 c 0,0 0,-1.525677 1.871282,-1.525677 h 9.357435 c 1.871281,0 1.871281,1.525677 1.871281,1.525677 V 49.721333 H 19.51069 Z"
       inkscape:connector-curvature="0" />
    <path
       id="rect3242"
       style="fill:url(#linearGradient2516);stroke-width:0.90752351"
       d="m 21.526073,13.759846 h 9.069233 v 35.961731 h -9.069233 z"
       inkscape:connector-curvature="0" />
    <path
       id="path2426"
       sodipodi:nodetypes="csssccs"
       style="fill:#f57900;stroke-width:0.90752351"
       d="m 32.610688,24.276201 c 0,0 0,-1.525923 1.871282,-1.525923 h 9.357435 c 1.871281,0 1.871281,1.525923 1.871281,1.525923 V 49.721577 H 32.610688 Z"
       inkscape:connector-curvature="0" />
    <path
       id="rect3244"
       style="fill:#fcaf3e;stroke-width:0.90752351"
       d="m 34.626071,24.384903 h 9.069233 v 25.336674 h -9.069233 z"
       inkscape:connector-curvature="0" />
    <path
       id="rect3246"
       style="fill:url(#linearGradient2511);stroke-width:0.90752351"
       d="m 47.726068,37.461895 h 9.069234 v 12.259682 h -9.069234 z"
       inkscape:connector-curvature="0" />
    <path
       id="rect3250"
       style="fill:url(#linearGradient2508);stroke-width:0.90752351"
       d="M 8.4260754,30.9234 H 17.495299 V 49.721577 H 8.4260754 Z"
       inkscape:connector-curvature="0" />
    <path
       id="rect3252"
       style="fill:#555753;stroke-width:0.90752351"
       d="M 3.3876153,49.721577 H 61.833762 c 0.558258,0 1.007696,0.36452 1.007696,0.817311 0,0.452791 -0.449438,0.817313 -1.007696,0.817313 H 3.3876153 c -0.5582669,0 -1.0076956,-0.364522 -1.0076956,-0.817313 0,-0.452791 0.4494287,-0.817311 1.0076956,-0.817311 z"
       inkscape:connector-curvature="0" />
    <path
       id="path2432"
       style="fill:url(#linearGradient2504);stroke-width:0.90752351"
       d="m 34.626071,24.384903 h 9.069233 v 25.336674 h -9.069233 z"
       inkscape:connector-curvature="0" />
    <path
       id="path3584"
       style="fill:url(#linearGradient2501);stroke-width:0.90752351"
       d="m 8.4260754,30.9234 v 2.706938 c 0.1901485,-0.04087 0.3862444,-0.06784 0.5983677,-0.05067 0.8314486,0.09644 1.4784849,0.586014 1.9833359,1.098467 0.746702,0.840197 1.550842,1.642798 2.456756,2.37511 1.173963,0.969332 2.524265,1.844673 4.030764,2.451935 v -8.581777 z"
       inkscape:connector-curvature="0" />
    <path
       id="path3600"
       style="fill:url(#linearGradient2498);stroke-width:0.90752351"
       d="M 17.495299,49.721577 V 47.01464 c -0.190451,0.04086 -0.385942,0.06783 -0.598569,0.05067 -0.831339,-0.09644 -1.478284,-0.586013 -1.983135,-1.098467 -0.746702,-0.840198 -1.550842,-1.642797 -2.456756,-2.37511 -1.173954,-0.969329 -2.5239624,-1.84467 -4.0307636,-2.451934 v 8.581778 z"
       inkscape:connector-curvature="0" />
    <path
       id="path3624"
       style="fill:url(#linearGradient2495);stroke-width:0.90752351"
       d="m 21.526073,13.759846 v 4.125792 c 0.190451,-0.06294 0.385942,-0.104617 0.598569,-0.07846 0.831348,0.147933 1.478283,0.893321 1.983135,1.673855 0.746702,1.280728 1.550842,2.503426 2.456756,3.619875 1.173963,1.477701 2.524274,2.809917 4.030773,3.735934 V 13.759846 Z"
       inkscape:connector-curvature="0" />
    <path
       id="path3662"
       style="fill:url(#linearGradient2492);stroke-width:0.90752351"
       d="m 30.595306,49.721577 v -4.641515 c -0.19046,0.0711 -0.385951,0.117693 -0.598569,0.08827 -0.831348,-0.165914 -1.478284,-1.005294 -1.983144,-1.883086 -0.746702,-1.440922 -1.550833,-2.816458 -2.456756,-4.07185 -1.173954,-1.662411 -2.524266,-3.16218 -4.030764,-4.203435 v 14.711617 z"
       inkscape:connector-curvature="0" />
    <path
       id="path3666"
       style="fill:url(#linearGradient2489);stroke-width:0.90752351"
       d="M 34.626071,24.384903 V 27.7367 c 0.19045,-0.05067 0.385941,-0.085 0.598569,-0.06294 0.831348,0.119328 1.478283,0.725773 1.983135,1.360007 0.746702,1.040439 1.550842,2.033471 2.456756,2.940688 1.173963,1.200632 2.524274,2.283571 4.030773,3.035497 V 24.384903 Z"
       inkscape:connector-curvature="0" />
    <path
       id="path3670"
       style="fill:url(#linearGradient2486);stroke-width:0.90752351"
       d="m 43.695304,49.721577 v -3.351796 c -0.19046,0.05067 -0.385951,0.085 -0.598569,0.06293 -0.831348,-0.119327 -1.478284,-0.725773 -1.983144,-1.360007 -0.746693,-1.040437 -1.550833,-2.033471 -2.456747,-2.940689 -1.173963,-1.20063 -2.524275,-2.283569 -4.030773,-3.035496 v 10.625057 z"
       inkscape:connector-curvature="0" />
    <path
       id="path3674"
       style="fill:url(#linearGradient2483);stroke-width:0.90752351"
       d="m 56.795302,49.721577 v -1.804624 c -0.190451,0.02697 -0.385951,0.04577 -0.598569,0.03351 -0.831348,-0.06456 -1.478284,-0.390673 -1.983135,-0.731493 -0.746702,-0.560676 -1.550843,-1.095198 -2.456756,-1.583952 -1.173963,-0.646493 -2.524275,-1.229237 -4.030774,-1.634622 v 5.721184 z"
       inkscape:connector-curvature="0" />
    <path
       id="path3678"
       style="fill:url(#linearGradient2480);stroke-width:0.90752351"
       d="m 47.726068,37.461895 v 1.804626 c 0.190451,-0.02697 0.385952,-0.04577 0.59857,-0.03351 0.831347,0.06457 1.478283,0.390676 1.983144,0.731495 0.746692,0.560676 1.550833,1.095198 2.456746,1.58395 1.173964,0.646495 2.524275,1.229237 4.030774,1.634625 v -5.721185 z"
       inkscape:connector-curvature="0" />
    <g
       transform="matrix(0.06714477,0,0,0.06842554,7.5865993,-9.6661761)"
       id="layer1-2"
       inkscape:label="Layer 1">
      <g
         id="g3004">
        <path
           inkscape:connector-curvature="0"
           id="path2997"
           d="M 524.02119,846.66898 C 490.18171,845.43928 469.23673,835.4046 463.9078,817.8688 l -0.6194,-2.03822 -0.0869,-34.37807 c -0.0994,-39.34605 -0.0645,-40.14313 2.02994,-46.40832 3.8218,-11.4321 12.85946,-18.80326 26.99339,-22.01596 l 3.12528,-0.71039 38.86217,-0.17214 c 27.84331,-0.12334 39.38779,-0.26278 40.71599,-0.49179 7.78179,-1.34176 12.88656,-3.35079 17.67917,-6.95781 5.72529,-4.30898 10.45115,-11.68459 12.56305,-19.60706 1.58617,-5.95027 1.54362,-5.30024 1.71503,-26.20182 l 0.15935,-19.43108 h 13.99581 13.99581 l 2.71764,0.75892 c 14.56095,4.06625 25.13262,17.86207 29.63343,38.67107 1.73113,8.00371 1.74921,8.29985 1.75236,28.71761 0.003,19.87041 -0.006,20.04397 -1.39428,26.56194 -1.3645,6.40641 -3.15056,11.61922 -5.81963,16.98521 -5.3828,10.82172 -13.3199,18.14602 -23.35659,21.55326 -5.73349,1.9464 -0.93423,1.78362 -57.34208,1.94488 l -50.81975,0.14528 v 4.61997 4.61998 l 33.69866,0.13588 33.69866,0.13589 0.13588,16.57756 c 0.0747,9.11766 0.0421,17.36 -0.0725,18.3163 -0.27725,2.31306 -1.25851,5.05814 -2.66252,7.44846 -1.44585,2.46155 -5.8352,6.86423 -8.81489,8.84166 -9.05051,6.00626 -22.84938,9.66748 -41.03627,10.88811 -6.11918,0.41068 -14.78488,0.52882 -21.33343,0.29086 z m 46.7433,-21.48129 c 6.49545,-1.05304 11.14502,-7.40993 10.07408,-13.77327 -0.88336,-5.24878 -4.93568,-9.30861 -10.15459,-10.17341 -7.96717,-1.3202 -15.21263,5.99583 -13.79486,13.9292 1.03129,5.77076 5.65851,9.83364 11.70127,10.27415 0.2242,0.0163 1.20255,-0.0992 2.1741,-0.25667 z M 425.9631,776.15253 c -7.64387,-1.38985 -15.17136,-6.02266 -20.4906,-12.611 -10.07532,-12.47914 -15.16151,-33.28398 -14.52301,-59.4057 0.3979,-16.27805 2.83146,-28.3617 7.78205,-38.64118 6.38127,-13.25015 15.91577,-21.1079 28.78701,-23.7245 2.81928,-0.57313 2.9606,-0.57462 52.61546,-0.55479 27.38373,0.0109 49.98945,-0.0572 50.23493,-0.1514 0.38956,-0.14949 0.44634,-0.75521 0.44634,-4.76218 0,-2.52499 -0.0306,-4.62027 -0.0679,-4.65617 -0.0374,-0.0359 -15.23233,-0.12763 -33.7666,-0.20383 l -33.69866,-0.13854 -0.07,-17.51427 c -0.0766,-19.18274 -0.092,-18.9603 1.55034,-22.48323 5.69332,-12.21284 22.46461,-19.63305 49.33937,-21.82947 1.9431,-0.1588 7.20173,-0.36064 11.68582,-0.44852 29.75347,-0.58311 51.57919,4.85751 63.05178,15.71727 1.27096,1.20307 2.92729,2.99882 3.68074,3.99055 1.71323,2.25504 3.84579,6.56034 4.66235,9.41253 l 0.62243,2.17411 v 36.14453 c 0,33.73877 -0.0327,36.31637 -0.49158,38.72628 -0.59212,3.10977 -2.01438,7.47916 -3.19974,9.83009 -4.1039,8.1393 -11.66531,14.00315 -21.68879,16.81957 -6.50861,1.8288 -3.55253,1.70865 -46.63719,1.89559 -42.78673,0.18564 -40.20144,0.086 -46.19977,1.78121 -11.65075,3.29273 -20.20984,12.36722 -23.68693,25.11328 -1.5631,5.72991 -1.52841,5.19458 -1.69958,26.22516 l -0.15925,19.56697 -13.04464,0.0447 c -9.84739,0.0338 -13.53234,-0.0439 -15.03438,-0.31707 z m 71.23167,-162.57949 c 4.94565,-2.32345 7.92398,-7.76975 7.02862,-12.85281 -0.82592,-4.68879 -4.04546,-8.43082 -8.41475,-9.78036 -6.98298,-2.15682 -14.26913,2.29386 -15.55751,9.50318 -1.04783,5.86328 2.34322,11.57131 8.07841,13.59808 1.28169,0.45295 2.10588,0.54476 4.30298,0.47938 2.39371,-0.0712 2.9375,-0.18417 4.56225,-0.94747 z"
           style="fill:#fed142" />
        <path
           inkscape:connector-curvature="0"
           id="path2995"
           d="m 425.9631,776.15253 c -7.64387,-1.38985 -15.17136,-6.02266 -20.4906,-12.611 -10.07532,-12.47914 -15.16151,-33.28398 -14.52301,-59.4057 0.3979,-16.27805 2.83146,-28.3617 7.78205,-38.64118 6.38127,-13.25015 15.91577,-21.1079 28.78701,-23.7245 2.81928,-0.57313 2.9606,-0.57462 52.61546,-0.55479 27.38373,0.0109 49.98945,-0.0572 50.23493,-0.1514 0.38956,-0.14949 0.44634,-0.75521 0.44634,-4.76218 0,-2.52499 -0.0306,-4.62027 -0.0679,-4.65617 -0.0374,-0.0359 -15.23233,-0.12763 -33.7666,-0.20383 l -33.69866,-0.13854 -0.07,-17.51427 c -0.0766,-19.18274 -0.092,-18.9603 1.55034,-22.48323 5.69332,-12.21284 22.46461,-19.63305 49.33937,-21.82947 1.9431,-0.1588 7.20173,-0.36064 11.68582,-0.44852 29.75347,-0.58311 51.57919,4.85751 63.05178,15.71727 1.27096,1.20307 2.92729,2.99882 3.68074,3.99055 1.71323,2.25504 3.84579,6.56034 4.66235,9.41253 l 0.62243,2.17411 v 36.14453 c 0,33.73877 -0.0327,36.31637 -0.49158,38.72628 -0.59212,3.10977 -2.01438,7.47916 -3.19974,9.83009 -4.1039,8.1393 -11.66531,14.00315 -21.68879,16.81957 -6.50861,1.8288 -3.55253,1.70865 -46.63719,1.89559 -42.78673,0.18564 -40.20144,0.086 -46.19977,1.78121 -11.65075,3.29273 -20.20984,12.36722 -23.68693,25.11328 -1.5631,5.72991 -1.52841,5.19458 -1.69958,26.22516 l -0.15925,19.56697 -13.04464,0.0447 c -9.84739,0.0338 -13.53234,-0.0439 -15.03438,-0.31707 z m 71.23167,-162.57949 c 4.94565,-2.32345 7.92398,-7.76975 7.02862,-12.85281 -0.82592,-4.68879 -4.04546,-8.43082 -8.41475,-9.78036 -6.98298,-2.15682 -14.26913,2.29386 -15.55751,9.50318 -1.04783,5.86328 2.34322,11.57131 8.07841,13.59808 1.28169,0.45295 2.10588,0.54476 4.30298,0.47938 2.39371,-0.0712 2.9375,-0.18417 4.56225,-0.94747 z"
           style="fill:#3571a3" />
      </g>
    </g>
    <g
       transform="matrix(0.15700382,0,0,0.16339286,-56.435428,-28.784528)"
       inkscape:label="Layer 1"
       id="layer1-1">
      <g
         transform="translate(520.93,524.88)"
         inkscape:export-filename="/home/ramsakb/desk/cherryhill/text6715.png"
         inkscape:export-xdpi="75.042641"
         inkscape:export-ydpi="75.042641"
         id="g3432">
        <path
           d="m -69.372,-255.14 v 8.0776 13.21 34.712 h 45 v -40.108 l -16.023,-15.892 z"
           inkscape:connector-curvature="0"
           style="color:#000000;opacity:0.6;fill:#000000;stroke:#000000;stroke-width:2;stroke-linecap:round;stroke-linejoin:round;stroke-dashoffset:117.54000092;filter:url(#filter4402)"
           sodipodi:nodetypes="cccccccc"
           id="path3434" />
        <path
           inkscape:connector-curvature="0"
           style="color:#000000;fill:url(#linearGradient3452);stroke:#000000;stroke-width:2;stroke-linecap:round;stroke-linejoin:round;stroke-dashoffset:117.54000092"
           sodipodi:nodetypes="cccccccc"
           d="m -76.372,-262.14 v 8.0776 13.21 34.712 h 45 v -40.108 l -16.023,-15.892 z"
           id="path3436" />
        <rect
           x="-85.372002"
           y="-251.14"
           width="31"
           height="12"
           ry="1"
           rx="1"
           style="color:#000000;fill:#000000;filter:url(#filter4396)"
           id="rect3438" />
        <rect
           x="-85.372002"
           y="-251.14"
           width="31"
           height="12"
           ry="1"
           rx="1"
           style="color:#000000;fill:#228b22"
           id="rect3440" />
        <path
           inkscape:connector-curvature="0"
           style="color:#000000;fill:url(#linearGradient3454);stroke:#000000;stroke-width:2;stroke-linecap:round;stroke-linejoin:round;stroke-dashoffset:117.54000092"
           d="m -31.372,-246.14 -15.989,-15.989 v 15.989 z"
           id="path3442" />
        <text
           x="-78.317238"
           y="-215.91681"
           inkscape:export-xdpi="75.042641"
           transform="scale(0.89596,1.1161)"
           inkscape:export-filename="/home/ramsakb/desk/cherryhill/text6715.png"
           xml:space="preserve"
           inkscape:export-ydpi="75.042641"
           style="font-weight:bold;line-height:0%;font-family:sans-serif;text-align:center;letter-spacing:0px;word-spacing:0px;text-anchor:middle;fill:#ffffff"
           id="text3444">         <tspan
   style="font-size:10.20800018px;line-height:1.25;font-family:sans-serif"
   y="-215.91681"
   x="-76.653175"
   sodipodi:role="line"
   id="tspan3446">CSV</tspan>      </text>
        <text
           x="-59.582047"
           y="-197.90613"
           inkscape:export-xdpi="75.042641"
           transform="scale(0.91141,1.0972)"
           inkscape:export-filename="/home/ramsakb/desk/cherryhill/text6715.png"
           xml:space="preserve"
           inkscape:export-ydpi="75.042641"
           style="color:#000000;line-height:0%;font-family:'DejaVu Sans';text-align:center;letter-spacing:0px;word-spacing:0px;text-anchor:middle;fill:#006400"
           id="text3448">         <tspan
   y="-197.90613"
   style="color:#000000;font-size:19.07999992px;line-height:1.25;font-family:'DejaVu Sans';fill:#006400"
   x="-57.67189"
   sodipodi:role="line"
   id="tspan3450">1,2,3</tspan>      </text>
      </g>
    </g>
    <flowRoot
       xml:space="preserve"
       id="flowRoot4128"
       style="font-style:normal;font-weight:normal;font-size:40px;line-height:1.25;font-family:sans-serif;letter-spacing:0px;word-spacing:0px;fill:#000000;fill-opacity:1;stroke:none"
       transform="matrix(0.15700382,0,0,0.16339286,-33.830119,3.7584105)"><flowRegion
         id="flowRegion4130"><rect
           id="rect4132"
           width="340.28143"
           height="56.616009"
           x="273.52899"
           y="197.31085" /></flowRegion><flowPara
         id="flowPara4134">csv-data-analyze</flowPara></flowRoot>  </g>
  <metadata
     id="metadata3860">
    <rdf:RDF>
      <cc:Work>
        <dc:format>image/svg+xml</dc:format>
        <dc:type
           rdf:resource="http://purl.org/dc/dcmitype/StillImage" />
        <cc:license
           rdf:resource="http://creativecommons.org/publicdomain/zero/1.0/" />
        <dc:publisher>
          <cc:Agent
             rdf:about="http://openclipart.org/">
            <dc:title>Openclipart</dc:title>
          </cc:Agent>
        </dc:publisher>
        <dc:title />
        <dc:date>2009-03-20T19:01:11</dc:date>
        <dc:description />
        <dc:source>https://openclipart.org/detail/22671/graphics_rounded-by-jean_victor_balin</dc:source>
        <dc:creator>
          <cc:Agent>
            <dc:title>jean_victor_balin</dc:title>
          </cc:Agent>
        </dc:creator>
        <dc:subject>
          <rdf:Bag>
            <rdf:li>graphics</rdf:li>
            <rdf:li>icon</rdf:li>
            <rdf:li>math</rdf:li>
            <rdf:li>statistics</rdf:li>
          </rdf:Bag>
        </dc:subject>
      </cc:Work>
      <cc:License
         rdf:about="http://creativecommons.org/licenses/publicdomain/">
        <cc:permits
           rdf:resource="http://creativecommons.org/ns#Reproduction" />
        <cc:permits
           rdf:resource="http://creativecommons.org/ns#Distribution" />
        <cc:permits
           rdf:resource="http://creativecommons.org/ns#DerivativeWorks" />
      </cc:License>
    </rdf:RDF>
  </metadata>
</svg>
