<?xml version="1.0" encoding="UTF-8" standalone="no"?>
<!-- Created with Inkscape (http://www.inkscape.org/) -->
<svg xmlns:dc="http://purl.org/dc/elements/1.1/" xmlns:inkscape="http://www.inkscape.org/namespaces/inkscape" xmlns:xlink="http://www.w3.org/1999/xlink" xmlns:sodipodi="http://sodipodi.sourceforge.net/DTD/sodipodi-0.dtd" xmlns:cc="http://creativecommons.org/ns#" xmlns:rdf="http://www.w3.org/1999/02/22-rdf-syntax-ns#" xmlns="http://www.w3.org/2000/svg" xmlns:svg="http://www.w3.org/2000/svg" xmlns:ns1="http://sozi.baierouge.fr" id="svg2" sodipodi:modified="TRUE" viewBox="0 0 64 64" sodipodi:docbase="D:\gfx" inkscape:export-ydpi="90" inkscape:export-xdpi="90" version="1.0" inkscape:output_extension="org.inkscape.output.svg.inkscape" sodipodi:docname="graphics_rounded.svg" inkscape:export-filename="/media/disk/gfx/cliparts/released/graphics_rounded.png" inkscape:version="0.46" sodipodi:version="0.32">
  <defs id="defs4">
    <linearGradient id="linearGradient3588">
      <stop id="stop3590" style="stop-color:#729fcf" offset="0"/>
      <stop id="stop3592" style="stop-color:#204a87" offset="1"/>
    </linearGradient>
    <linearGradient id="linearGradient3258">
      <stop id="stop3262" style="stop-color:#4e9a06" offset="0"/>
      <stop id="stop3264" style="stop-color:#8ae234" offset="1"/>
    </linearGradient>
    <linearGradient id="linearGradient3248">
      <stop id="stop3284" style="stop-color:#c91414" offset="0"/>
      <stop id="stop3252" style="stop-color:#ef2929" offset="1"/>
    </linearGradient>
    <linearGradient id="linearGradient2434">
      <stop id="stop2436" style="stop-color:#f57900" offset="0"/>
      <stop id="stop2438" style="stop-color:#fcaf3e" offset="1"/>
    </linearGradient>
    <linearGradient id="linearGradient2480" y2="34" xlink:href="#linearGradient3248" gradientUnits="userSpaceOnUse" x2="8" gradientTransform="matrix(1 0 0 .66667 39 15.333)" y1="44.5" x1="17" inkscape:collect="always"/>
    <linearGradient id="linearGradient2483" y2="37" xlink:href="#linearGradient3248" gradientUnits="userSpaceOnUse" x2="11" gradientTransform="matrix(-1 0 0 -.66667 64 75.667)" y1="34" x1="8" inkscape:collect="always"/>
    <linearGradient id="linearGradient2486" y2="44.5" xlink:href="#linearGradient2434" gradientUnits="userSpaceOnUse" x2="17" gradientTransform="matrix(-1 0 0 -1.2381 51 95.095)" y1="34" x1="6" inkscape:collect="always"/>
    <linearGradient id="linearGradient2489" y2="34" xlink:href="#linearGradient2434" gradientUnits="userSpaceOnUse" x2="8" gradientTransform="matrix(1 0 0 1.2381 26 -20.095)" y1="44.5" x1="19" inkscape:collect="always"/>
    <linearGradient id="linearGradient2492" y2="44.5" xlink:href="#linearGradient3258" gradientUnits="userSpaceOnUse" x2="17" gradientTransform="matrix(-1 0 0 -1.7143 38 111.29)" y1="34" x1="8" inkscape:collect="always"/>
    <linearGradient id="linearGradient2495" y2="34" xlink:href="#linearGradient3258" gradientUnits="userSpaceOnUse" x2="8" gradientTransform="matrix(1 0 0 1.5238 13 -42.81)" y1="44.5" x1="17" inkscape:collect="always"/>
    <linearGradient id="linearGradient2498" y2="34" xlink:href="#linearGradient3588" gradientUnits="userSpaceOnUse" x2="8" gradientTransform="matrix(-1,0,0,-1,25,87)" y1="44" x1="17" inkscape:collect="always"/>
    <linearGradient id="linearGradient2501" y2="44" xlink:href="#linearGradient3588" gradientUnits="userSpaceOnUse" x2="17" gradientTransform="translate(0,-4)" y1="34" x1="8" inkscape:collect="always"/>
    <linearGradient id="linearGradient2504" y2="11" xlink:href="#linearGradient2434" gradientUnits="userSpaceOnUse" x2="51" gradientTransform="translate(-17,11)" y1="42" x1="60" inkscape:collect="always"/>
    <linearGradient id="linearGradient2508" y2="57" gradientUnits="userSpaceOnUse" x2="17" gradientTransform="translate(0,-4)" y1="34" x1="8" inkscape:collect="always">
      <stop id="stop3272" style="stop-color:#729fcf" offset="0"/>
      <stop id="stop3274" style="stop-color:#204a87" offset="1"/>
    </linearGradient>
    <linearGradient id="linearGradient2511" y2="48.269" xlink:href="#linearGradient3248" gradientUnits="userSpaceOnUse" x2="50.657" gradientTransform="translate(0,-4)" y1="57" x1="56" inkscape:collect="always"/>
    <linearGradient id="linearGradient2516" y2="13" xlink:href="#linearGradient3258" gradientUnits="userSpaceOnUse" x2="21" gradientTransform="translate(0,-4)" y1="57" x1="30" inkscape:collect="always"/>
  </defs>
  <sodipodi:namedview id="base" inkscape:zoom="7.65625" height="30px" borderopacity="1.0" inkscape:current-layer="layer1" inkscape:cx="49.74446" inkscape:cy="31.253448" inkscape:grid-points="true" inkscape:snap-bbox="true" showgrid="false" width="30px" inkscape:snap-nodes="true" inkscape:snap-global="true" showguides="true" bordercolor="#666666" inkscape:window-x="0" inkscape:window-y="25" inkscape:window-width="1280" inkscape:pageopacity="0.0" inkscape:pageshadow="2" guidetolerance="10000" pagecolor="#ffffff" gridtolerance="10000" inkscape:bbox-paths="true" inkscape:document-units="px" inkscape:bbox-nodes="true" inkscape:window-height="694">
    <inkscape:grid id="grid2395" visible="true" type="xygrid" enabled="true"/>
  </sodipodi:namedview>
  <g id="layer1" inkscape:label="Calque 1" inkscape:groupmode="layer">
    <rect id="rect3465" style="fill:#427bc3" ry="0" height="0" width="6" y="12.5" x="16"/>
    <path id="path2430" sodipodi:nodetypes="csssccs" style="fill:#204a87" d="m6 29.867s0-1.867 1.8571-1.867h9.2859c1.857 0 1.857 1.867 1.857 1.867v23.133h-13v-23.133z"/>
    <path id="rect3240" sodipodi:nodetypes="csssccs" style="fill:#cc0000" d="m45 38.067s0-1.867 1.857-1.867h9.286c1.857 0 1.857 1.867 1.857 1.867v14.933h-13v-14.933z"/>
    <path id="path2428" sodipodi:nodetypes="csssccs" style="fill:#4e9a06" d="m19 8.8667s0-1.8667 1.857-1.8667h9.286c1.857 0 1.857 1.8667 1.857 1.8667v44.133h-13v-44.133z"/>
    <path id="rect3242" style="fill:url(#linearGradient2516)" d="m21 9h9v44h-9v-44z"/>
    <path id="path2426" sodipodi:nodetypes="csssccs" style="fill:#f57900" d="m32 21.867s0-1.867 1.857-1.867h9.286c1.857 0 1.857 1.867 1.857 1.867v31.133h-13v-31.133z"/>
    <path id="rect3244" style="fill:#fcaf3e" d="m34 22h9v31h-9v-31z"/>
    <path id="rect3246" style="fill:url(#linearGradient2511)" d="m47 38h9v15h-9v-15z"/>
    <path id="rect3250" style="fill:url(#linearGradient2508)" d="m8 30h9v23h-9v-23z"/>
    <path id="rect3252" style="fill:#555753" d="m3 53h58c0.554 0 1 0.446 1 1s-0.446 1-1 1h-58c-0.554 0-1-0.446-1-1s0.446-1 1-1z"/>
    <path id="path2432" style="fill:url(#linearGradient2504)" d="m34 22h9v31h-9v-31z"/>
    <path id="path3584" style="fill:url(#linearGradient2501)" d="m8 30v3.312c0.1887-0.05 0.3833-0.083 0.5938-0.062 0.8251 0.118 1.4672 0.717 1.9682 1.344 0.741 1.028 1.539 2.01 2.438 2.906 1.165 1.186 2.505 2.257 4 3v-10.5h-9z"/>
    <path id="path3600" style="fill:url(#linearGradient2498)" d="m17 53v-3.312c-0.189 0.05-0.383 0.083-0.594 0.062-0.825-0.118-1.467-0.717-1.968-1.344-0.741-1.028-1.539-2.01-2.438-2.906-1.165-1.186-2.5047-2.257-4-3v10.5h9z"/>
    <path id="path3624" style="fill:url(#linearGradient2495)" d="m21 9v5.048c0.189-0.077 0.383-0.128 0.594-0.096 0.825 0.181 1.467 1.093 1.968 2.048 0.741 1.567 1.539 3.063 2.438 4.429 1.165 1.808 2.505 3.438 4 4.571v-16h-9z"/>
    <path id="path3662" style="fill:url(#linearGradient2492)" d="m30 53v-5.679c-0.189 0.087-0.383 0.144-0.594 0.108-0.825-0.203-1.467-1.23-1.968-2.304-0.741-1.763-1.539-3.446-2.438-4.982-1.165-2.034-2.505-3.869-4-5.143v18h9z"/>
    <path id="path3666" style="fill:url(#linearGradient2489)" d="m34 22v4.101c0.189-0.062 0.383-0.104 0.594-0.077 0.825 0.146 1.467 0.888 1.968 1.664 0.741 1.273 1.539 2.488 2.438 3.598 1.165 1.469 2.505 2.794 4 3.714v-13h-9z"/>
    <path id="path3670" style="fill:url(#linearGradient2486)" d="m43 53v-4.101c-0.189 0.062-0.383 0.104-0.594 0.077-0.825-0.146-1.467-0.888-1.968-1.664-0.741-1.273-1.539-2.488-2.438-3.598-1.165-1.469-2.505-2.794-4-3.714v13h9z"/>
    <path id="path3674" style="fill:url(#linearGradient2483)" d="m56 53v-2.208c-0.189 0.033-0.383 0.056-0.594 0.041-0.825-0.079-1.467-0.478-1.968-0.895-0.741-0.686-1.539-1.34-2.438-1.938-1.165-0.791-2.505-1.504-4-2v7h9z"/>
    <path id="path3678" style="fill:url(#linearGradient2480)" d="m47 38v2.208c0.189-0.033 0.383-0.056 0.594-0.041 0.825 0.079 1.467 0.478 1.968 0.895 0.741 0.686 1.539 1.34 2.438 1.938 1.165 0.791 2.505 1.504 4 2v-7h-9z"/>
  </g>
  <metadata>
    <rdf:RDF>
      <cc:Work>
        <dc:format>image/svg+xml</dc:format>
        <dc:type rdf:resource="http://purl.org/dc/dcmitype/StillImage"/>
        <cc:license rdf:resource="http://creativecommons.org/licenses/publicdomain/"/>
        <dc:publisher>
          <cc:Agent rdf:about="http://openclipart.org/">
            <dc:title>Openclipart</dc:title>
          </cc:Agent>
        </dc:publisher>
        <dc:title>graphics_rounded</dc:title>
        <dc:date>2009-03-20T19:01:11</dc:date>
        <dc:description/>
        <dc:source>https://openclipart.org/detail/22671/graphics_rounded-by-jean_victor_balin</dc:source>
        <dc:creator>
          <cc:Agent>
            <dc:title>jean_victor_balin</dc:title>
          </cc:Agent>
        </dc:creator>
        <dc:subject>
          <rdf:Bag>
            <rdf:li>graphics</rdf:li>
            <rdf:li>icon</rdf:li>
            <rdf:li>math</rdf:li>
            <rdf:li>statistics</rdf:li>
          </rdf:Bag>
        </dc:subject>
      </cc:Work>
      <cc:License rdf:about="http://creativecommons.org/licenses/publicdomain/">
        <cc:permits rdf:resource="http://creativecommons.org/ns#Reproduction"/>
        <cc:permits rdf:resource="http://creativecommons.org/ns#Distribution"/>
        <cc:permits rdf:resource="http://creativecommons.org/ns#DerivativeWorks"/>
      </cc:License>
    </rdf:RDF>
  </metadata>
</svg>